<svg width="306" height="352" viewBox="0 0 306 352" fill="none" xmlns="http://www.w3.org/2000/svg">
<path fill-rule="evenodd" clip-rule="evenodd" d="M-0.000244141 267.635V344.989C-0.000244141 350.263 6.31534 352.971 10.1359 349.335L47.9938 313.31H251.694C270.472 313.31 285.694 298.087 285.694 279.31V134.878C285.694 116.1 270.472 100.878 251.694 100.878H34.0055C15.2278 100.878 0.00549316 116.1 0.00549316 134.878V267.635H-0.000244141Z" fill="url(#paint0_linear_103_51)"/>
<mask id="mask0_103_51" style="mask-type:alpha" maskUnits="userSpaceOnUse" x="0" y="101" width="286" height="251">
<path fill-rule="evenodd" clip-rule="evenodd" d="M-0.000244141 267.757V345.111C-0.000244141 350.385 6.31534 353.093 10.1359 349.457L47.9938 313.432H251.694C270.472 313.432 285.694 298.21 285.694 279.432V135C285.694 116.223 270.472 101 251.694 101H34.0055C15.2278 101 0.00549316 116.223 0.00549316 135V267.757H-0.000244141Z" fill="white"/>
</mask>
<g mask="url(#mask0_103_51)">
<path d="M-0.000976562 351.5L228.999 168.5L169.999 87.9874H-0.000976562V351.5Z" fill="url(#paint1_linear_103_51)"/>
</g>
<g filter="url(#filter0_i_103_51)">
<path d="M273.505 99.729C289.153 110.454 289.153 133.546 273.505 144.271L170.263 215.032C152.346 227.313 127.999 214.484 127.999 192.761L127.999 51.2388C127.999 29.5165 152.346 16.6871 170.263 28.9677L273.505 99.729Z" fill="url(#paint2_linear_103_51)"/>
</g>
<defs>
<filter id="filter0_i_103_51" x="127.999" y="21.1924" width="158.242" height="198.615" filterUnits="userSpaceOnUse" color-interpolation-filters="sRGB">
<feFlood flood-opacity="0" result="BackgroundImageFix"/>
<feBlend mode="normal" in="SourceGraphic" in2="BackgroundImageFix" result="shape"/>
<feColorMatrix in="SourceAlpha" type="matrix" values="0 0 0 0 0 0 0 0 0 0 0 0 0 0 0 0 0 0 127 0" result="hardAlpha"/>
<feOffset dx="1" dy="-3"/>
<feGaussianBlur stdDeviation="2"/>
<feComposite in2="hardAlpha" operator="arithmetic" k2="-1" k3="1"/>
<feColorMatrix type="matrix" values="0 0 0 0 1 0 0 0 0 1 0 0 0 0 1 0 0 0 0.25 0"/>
<feBlend mode="normal" in2="shape" result="effect1_innerShadow_103_51"/>
</filter>
<linearGradient id="paint0_linear_103_51" x1="179.999" y1="211" x2="129.327" y2="385.868" gradientUnits="userSpaceOnUse">
<stop stop-color="#1D94F2"/>
<stop offset="1" stop-color="#273DFE"/>
</linearGradient>
<linearGradient id="paint1_linear_103_51" x1="135.499" y1="157" x2="-48.3018" y2="459.094" gradientUnits="userSpaceOnUse">
<stop stop-color="#0025FF"/>
<stop offset="0.797062" stop-color="#1E95F3" stop-opacity="0"/>
</linearGradient>
<linearGradient id="paint2_linear_103_51" x1="161.499" y1="24.5" x2="168.338" y2="244.145" gradientUnits="userSpaceOnUse">
<stop offset="0.00509219" stop-color="#B0DCFF"/>
<stop offset="0.207773" stop-color="#AAD1FF"/>
<stop offset="0.434373" stop-color="#96C0FC"/>
<stop offset="0.727097" stop-color="#C9DCF7"/>
<stop offset="1" stop-color="#E2EEFF"/>
</linearGradient>
</defs>
</svg>
